<mxfile host="app.diagrams.net" agent="Mozilla/5.0 (X11; Ubuntu; Linux x86_64; rv:133.0) Gecko/20100101 Firefox/133.0" version="25.0.1">
  <diagram name="Seite-1" id="573FOmJ2gYk_F7sCufIs">
    <mxGraphModel dx="1434" dy="822" grid="1" gridSize="10" guides="1" tooltips="1" connect="1" arrows="1" fold="1" page="1" pageScale="1" pageWidth="827" pageHeight="1169" math="0" shadow="0">
      <root>
        <mxCell id="0" />
        <mxCell id="1" parent="0" />
        <mxCell id="EFGr_PulNLdhgQqr8qeP-3" value="" style="rounded=1;whiteSpace=wrap;html=1;strokeWidth=2;glass=0;shadow=0;fillStyle=solid;gradientDirection=radial;opacity=80;fillColor=#FAD6FF;" parent="1" vertex="1">
          <mxGeometry x="200" y="50" width="690" height="740" as="geometry" />
        </mxCell>
        <mxCell id="EFGr_PulNLdhgQqr8qeP-73" value="" style="group;dashed=1;perimeterSpacing=0;fillStyle=solid;gradientDirection=west;opacity=70;fillColor=#e8e8e8;strokeColor=#9673a6;rounded=1;glass=0;" parent="1" vertex="1" connectable="0">
          <mxGeometry x="440" y="130" width="376" height="640" as="geometry" />
        </mxCell>
        <mxCell id="EFGr_PulNLdhgQqr8qeP-41" value="" style="rounded=1;whiteSpace=wrap;html=1;fillColor=none;" parent="EFGr_PulNLdhgQqr8qeP-73" vertex="1">
          <mxGeometry width="376" height="640" as="geometry" />
        </mxCell>
        <mxCell id="EFGr_PulNLdhgQqr8qeP-42" value="&lt;b&gt;Modules&lt;/b&gt;" style="text;html=1;align=center;verticalAlign=middle;whiteSpace=wrap;rounded=0;" parent="EFGr_PulNLdhgQqr8qeP-73" vertex="1">
          <mxGeometry x="30" y="25.6" width="60" height="38.4" as="geometry" />
        </mxCell>
        <mxCell id="6qH3w6OaFPkoMokO1ttc-2" value="" style="group" vertex="1" connectable="0" parent="EFGr_PulNLdhgQqr8qeP-73">
          <mxGeometry x="90" y="500" width="200" height="99.99999999999999" as="geometry" />
        </mxCell>
        <mxCell id="6qH3w6OaFPkoMokO1ttc-3" value="" style="rounded=1;whiteSpace=wrap;html=1;" vertex="1" parent="6qH3w6OaFPkoMokO1ttc-2">
          <mxGeometry width="200" height="99.99999999999999" as="geometry" />
        </mxCell>
        <mxCell id="6qH3w6OaFPkoMokO1ttc-4" value="&lt;u&gt;Trigger&lt;/u&gt;" style="text;html=1;align=center;verticalAlign=middle;whiteSpace=wrap;rounded=0;" vertex="1" parent="6qH3w6OaFPkoMokO1ttc-2">
          <mxGeometry width="200" height="30" as="geometry" />
        </mxCell>
        <mxCell id="6qH3w6OaFPkoMokO1ttc-5" value="&lt;div style=&quot;&quot;&gt;&lt;span style=&quot;background-color: initial;&quot;&gt;- repeatedly queries Microsoft stock value from web-server&lt;/span&gt;&lt;br&gt;&lt;/div&gt;&lt;div style=&quot;&quot;&gt;&lt;span style=&quot;background-color: initial;&quot;&gt;- on significant drop in value, execute attack&lt;/span&gt;&lt;/div&gt;" style="text;html=1;align=left;verticalAlign=middle;whiteSpace=wrap;rounded=0;" vertex="1" parent="6qH3w6OaFPkoMokO1ttc-2">
          <mxGeometry x="10.526315789473642" y="30" width="178.94736842105263" height="60" as="geometry" />
        </mxCell>
        <mxCell id="EFGr_PulNLdhgQqr8qeP-30" value="" style="group;strokeColor=none;" parent="1" vertex="1" connectable="0">
          <mxGeometry y="180" width="170" height="150" as="geometry" />
        </mxCell>
        <mxCell id="EFGr_PulNLdhgQqr8qeP-28" value="" style="rounded=1;whiteSpace=wrap;html=1;" parent="EFGr_PulNLdhgQqr8qeP-30" vertex="1">
          <mxGeometry width="170" height="150" as="geometry" />
        </mxCell>
        <mxCell id="EFGr_PulNLdhgQqr8qeP-29" value="&lt;u&gt;Loader&lt;/u&gt;" style="text;html=1;align=center;verticalAlign=middle;whiteSpace=wrap;rounded=0;strokeColor=none;perimeterSpacing=21;fillColor=none;" parent="EFGr_PulNLdhgQqr8qeP-30" vertex="1">
          <mxGeometry width="150" height="32.5" as="geometry" />
        </mxCell>
        <mxCell id="EFGr_PulNLdhgQqr8qeP-37" value="&lt;div&gt;&lt;span style=&quot;background-color: initial;&quot;&gt;- statically linked c program&lt;/span&gt;&lt;/div&gt;&lt;span style=&quot;background-color: initial;&quot;&gt;- unencrypted / obfuscated&amp;nbsp;&lt;/span&gt;&lt;div&gt;&lt;span style=&quot;background-color: initial;&quot;&gt;- loads the actual malware into memory, decrypts and executes it&amp;nbsp;&lt;/span&gt;&lt;/div&gt;" style="text;html=1;align=left;verticalAlign=top;whiteSpace=wrap;rounded=0;strokeColor=none;dashed=1;spacingLeft=4;spacingRight=4;" parent="EFGr_PulNLdhgQqr8qeP-30" vertex="1">
          <mxGeometry y="32.5" width="170" height="87.5" as="geometry" />
        </mxCell>
        <mxCell id="EFGr_PulNLdhgQqr8qeP-39" value="" style="endArrow=classic;html=1;rounded=0;entryX=0;entryY=0.123;entryDx=0;entryDy=0;entryPerimeter=0;dashed=1;dashPattern=1 2;exitX=0.766;exitY=0.255;exitDx=0;exitDy=0;exitPerimeter=0;" parent="1" source="EFGr_PulNLdhgQqr8qeP-29" target="EFGr_PulNLdhgQqr8qeP-3" edge="1">
          <mxGeometry width="50" height="50" relative="1" as="geometry">
            <mxPoint x="80" y="150" as="sourcePoint" />
            <mxPoint x="230" y="150" as="targetPoint" />
            <Array as="points">
              <mxPoint x="125" y="140" />
            </Array>
          </mxGeometry>
        </mxCell>
        <mxCell id="EFGr_PulNLdhgQqr8qeP-4" value="Malware" style="text;html=1;align=center;verticalAlign=middle;whiteSpace=wrap;rounded=0;strokeColor=default;dashed=1;fillColor=none;fontStyle=1" parent="1" vertex="1">
          <mxGeometry x="250" y="90" width="60" height="30" as="geometry" />
        </mxCell>
        <mxCell id="EFGr_PulNLdhgQqr8qeP-77" style="edgeStyle=orthogonalEdgeStyle;rounded=0;orthogonalLoop=1;jettySize=auto;html=1;exitX=0.75;exitY=1;exitDx=0;exitDy=0;entryX=0;entryY=0.5;entryDx=0;entryDy=0;dashed=1;" parent="1" source="EFGr_PulNLdhgQqr8qeP-26" target="EFGr_PulNLdhgQqr8qeP-65" edge="1">
          <mxGeometry relative="1" as="geometry">
            <Array as="points">
              <mxPoint x="370" y="450" />
              <mxPoint x="370" y="570" />
            </Array>
          </mxGeometry>
        </mxCell>
        <mxCell id="EFGr_PulNLdhgQqr8qeP-63" value="" style="group" parent="1" vertex="1" connectable="0">
          <mxGeometry x="530" y="520" width="200" height="100" as="geometry" />
        </mxCell>
        <mxCell id="EFGr_PulNLdhgQqr8qeP-64" value="" style="group" parent="EFGr_PulNLdhgQqr8qeP-63" vertex="1" connectable="0">
          <mxGeometry width="200" height="99.99999999999999" as="geometry" />
        </mxCell>
        <mxCell id="EFGr_PulNLdhgQqr8qeP-65" value="" style="rounded=1;whiteSpace=wrap;html=1;" parent="EFGr_PulNLdhgQqr8qeP-64" vertex="1">
          <mxGeometry width="200" height="99.99999999999999" as="geometry" />
        </mxCell>
        <mxCell id="EFGr_PulNLdhgQqr8qeP-66" value="&lt;u&gt;USB Scanner&lt;/u&gt;" style="text;html=1;align=center;verticalAlign=middle;whiteSpace=wrap;rounded=0;" parent="EFGr_PulNLdhgQqr8qeP-64" vertex="1">
          <mxGeometry width="200" height="30" as="geometry" />
        </mxCell>
        <mxCell id="EFGr_PulNLdhgQqr8qeP-67" value="&lt;div style=&quot;&quot;&gt;- scans for connected USB-devices&lt;/div&gt;&lt;div style=&quot;&quot;&gt;- copy itself to connected drives&lt;/div&gt;" style="text;html=1;align=left;verticalAlign=top;whiteSpace=wrap;rounded=0;" parent="EFGr_PulNLdhgQqr8qeP-64" vertex="1">
          <mxGeometry x="10.526315789473683" y="30" width="178.94736842105263" height="60" as="geometry" />
        </mxCell>
        <mxCell id="EFGr_PulNLdhgQqr8qeP-72" value="" style="group" parent="1" vertex="1" connectable="0">
          <mxGeometry x="530" y="300" width="200" height="100" as="geometry" />
        </mxCell>
        <mxCell id="EFGr_PulNLdhgQqr8qeP-53" value="" style="rounded=1;whiteSpace=wrap;html=1;" parent="EFGr_PulNLdhgQqr8qeP-72" vertex="1">
          <mxGeometry width="200" height="99.99999999999999" as="geometry" />
        </mxCell>
        <mxCell id="EFGr_PulNLdhgQqr8qeP-55" value="&lt;div style=&quot;&quot;&gt;&lt;span style=&quot;background-color: initial;&quot;&gt;- host IPP-server&lt;/span&gt;&lt;br&gt;&lt;/div&gt;&lt;div style=&quot;&quot;&gt;&lt;span style=&quot;background-color: initial;&quot;&gt;- on connection&lt;/span&gt;&lt;/div&gt;&lt;div style=&quot;&quot;&gt;&lt;span style=&quot;background-color: initial;&quot;&gt;&amp;nbsp; - responds with malicious printer properties&lt;/span&gt;&lt;br&gt;&lt;/div&gt;" style="text;html=1;align=left;verticalAlign=middle;whiteSpace=wrap;rounded=0;" parent="EFGr_PulNLdhgQqr8qeP-72" vertex="1">
          <mxGeometry x="10.526315789473642" y="30" width="178.94736842105263" height="60" as="geometry" />
        </mxCell>
        <mxCell id="EFGr_PulNLdhgQqr8qeP-54" value="&lt;u&gt;Exploit / IPP Server&lt;/u&gt;" style="text;html=1;align=center;verticalAlign=middle;whiteSpace=wrap;rounded=0;" parent="EFGr_PulNLdhgQqr8qeP-72" vertex="1">
          <mxGeometry width="200" height="30" as="geometry" />
        </mxCell>
        <mxCell id="EFGr_PulNLdhgQqr8qeP-70" value="" style="group" parent="1" vertex="1" connectable="0">
          <mxGeometry x="530" y="190" width="200" height="99.99999999999999" as="geometry" />
        </mxCell>
        <mxCell id="EFGr_PulNLdhgQqr8qeP-9" value="" style="rounded=1;whiteSpace=wrap;html=1;" parent="EFGr_PulNLdhgQqr8qeP-70" vertex="1">
          <mxGeometry width="200" height="99.99999999999999" as="geometry" />
        </mxCell>
        <mxCell id="EFGr_PulNLdhgQqr8qeP-10" value="&lt;u&gt;Propagate&lt;/u&gt;" style="text;html=1;align=center;verticalAlign=middle;whiteSpace=wrap;rounded=0;" parent="EFGr_PulNLdhgQqr8qeP-70" vertex="1">
          <mxGeometry width="200" height="30" as="geometry" />
        </mxCell>
        <mxCell id="EFGr_PulNLdhgQqr8qeP-49" value="&lt;div style=&quot;&quot;&gt;&lt;span style=&quot;background-color: initial;&quot;&gt;- host TCP-server&lt;/span&gt;&lt;br&gt;&lt;/div&gt;&lt;div style=&quot;&quot;&gt;&lt;span style=&quot;background-color: initial;&quot;&gt;- on connection&lt;/span&gt;&lt;/div&gt;&lt;div style=&quot;&quot;&gt;&lt;span style=&quot;background-color: initial;&quot;&gt;&amp;nbsp; - re-encrypts the malware&lt;/span&gt;&lt;/div&gt;&lt;div style=&quot;&quot;&gt;&lt;span style=&quot;background-color: initial;&quot;&gt;&amp;nbsp; - sends copy to client&lt;/span&gt;&lt;/div&gt;" style="text;html=1;align=left;verticalAlign=middle;whiteSpace=wrap;rounded=0;" parent="EFGr_PulNLdhgQqr8qeP-70" vertex="1">
          <mxGeometry x="10.526315789473642" y="30" width="178.94736842105263" height="60" as="geometry" />
        </mxCell>
        <mxCell id="EFGr_PulNLdhgQqr8qeP-71" value="" style="group" parent="1" vertex="1" connectable="0">
          <mxGeometry x="530" y="410" width="200" height="100" as="geometry" />
        </mxCell>
        <mxCell id="EFGr_PulNLdhgQqr8qeP-59" value="" style="rounded=1;whiteSpace=wrap;html=1;" parent="EFGr_PulNLdhgQqr8qeP-71" vertex="1">
          <mxGeometry width="200" height="99.99999999999999" as="geometry" />
        </mxCell>
        <mxCell id="EFGr_PulNLdhgQqr8qeP-60" value="&lt;u&gt;Network Scanner&lt;/u&gt;" style="text;html=1;align=center;verticalAlign=middle;whiteSpace=wrap;rounded=0;" parent="EFGr_PulNLdhgQqr8qeP-71" vertex="1">
          <mxGeometry width="200" height="30" as="geometry" />
        </mxCell>
        <mxCell id="EFGr_PulNLdhgQqr8qeP-61" value="&lt;div style=&quot;&quot;&gt;- scans the network repeatedly&lt;/div&gt;&lt;div style=&quot;&quot;&gt;- initiate exploit on UPD-port 631&lt;/div&gt;" style="text;html=1;align=left;verticalAlign=top;whiteSpace=wrap;rounded=0;" parent="EFGr_PulNLdhgQqr8qeP-71" vertex="1">
          <mxGeometry x="10.526315789473642" y="30" width="178.94736842105263" height="60" as="geometry" />
        </mxCell>
        <mxCell id="EFGr_PulNLdhgQqr8qeP-81" value="" style="endArrow=classic;html=1;rounded=0;exitX=0.75;exitY=1;exitDx=0;exitDy=0;entryX=0;entryY=0.5;entryDx=0;entryDy=0;dashed=1;" parent="1" source="EFGr_PulNLdhgQqr8qeP-28" target="EFGr_PulNLdhgQqr8qeP-26" edge="1">
          <mxGeometry width="50" height="50" relative="1" as="geometry">
            <mxPoint x="450" y="410" as="sourcePoint" />
            <mxPoint x="500" y="360" as="targetPoint" />
            <Array as="points">
              <mxPoint x="128" y="380" />
            </Array>
          </mxGeometry>
        </mxCell>
        <mxCell id="EFGr_PulNLdhgQqr8qeP-92" value="" style="group" parent="1" vertex="1" connectable="0">
          <mxGeometry x="240" y="310" width="160" height="140" as="geometry" />
        </mxCell>
        <mxCell id="EFGr_PulNLdhgQqr8qeP-26" value="" style="rounded=1;whiteSpace=wrap;html=1;" parent="EFGr_PulNLdhgQqr8qeP-92" vertex="1">
          <mxGeometry width="160" height="140" as="geometry" />
        </mxCell>
        <mxCell id="EFGr_PulNLdhgQqr8qeP-27" value="&lt;u&gt;Entry&lt;/u&gt;" style="text;html=1;align=center;verticalAlign=middle;whiteSpace=wrap;rounded=0;" parent="EFGr_PulNLdhgQqr8qeP-92" vertex="1">
          <mxGeometry width="160" height="30" as="geometry" />
        </mxCell>
        <mxCell id="EFGr_PulNLdhgQqr8qeP-46" value="&lt;div&gt;- entrypoint to the malware&lt;/div&gt;- starts each module in its own thread" style="text;html=1;align=left;verticalAlign=top;whiteSpace=wrap;rounded=0;spacingLeft=4;spacingRight=4;" parent="EFGr_PulNLdhgQqr8qeP-92" vertex="1">
          <mxGeometry y="30" width="160" height="90" as="geometry" />
        </mxCell>
        <mxCell id="EFGr_PulNLdhgQqr8qeP-94" value="" style="endArrow=classic;html=1;rounded=0;entryX=0;entryY=0.5;entryDx=0;entryDy=0;dashed=1;" parent="1" target="EFGr_PulNLdhgQqr8qeP-53" edge="1">
          <mxGeometry width="50" height="50" relative="1" as="geometry">
            <mxPoint x="400" y="350" as="sourcePoint" />
            <mxPoint x="500" y="360" as="targetPoint" />
          </mxGeometry>
        </mxCell>
        <mxCell id="EFGr_PulNLdhgQqr8qeP-96" value="" style="endArrow=classic;html=1;rounded=0;exitX=0.806;exitY=-0.133;exitDx=0;exitDy=0;entryX=0;entryY=0.5;entryDx=0;entryDy=0;dashed=1;exitPerimeter=0;" parent="1" source="EFGr_PulNLdhgQqr8qeP-27" target="EFGr_PulNLdhgQqr8qeP-9" edge="1">
          <mxGeometry width="50" height="50" relative="1" as="geometry">
            <mxPoint x="320" y="265.69" as="sourcePoint" />
            <mxPoint x="420" y="289.99555555555565" as="targetPoint" />
            <Array as="points">
              <mxPoint x="370" y="240" />
            </Array>
          </mxGeometry>
        </mxCell>
        <mxCell id="EFGr_PulNLdhgQqr8qeP-97" value="&lt;div&gt;shared library, containing the actual functional logic of the malware&lt;/div&gt;" style="text;html=1;align=left;verticalAlign=top;whiteSpace=wrap;rounded=0;" parent="1" vertex="1">
          <mxGeometry x="230" y="130" width="170" height="80" as="geometry" />
        </mxCell>
        <mxCell id="Svo8xL1IhhW2UrXcTPQF-1" value="" style="endArrow=classic;html=1;rounded=0;entryX=0;entryY=0.4;entryDx=0;entryDy=0;entryPerimeter=0;dashed=1;" parent="1" edge="1">
          <mxGeometry width="50" height="50" relative="1" as="geometry">
            <mxPoint x="400" y="430" as="sourcePoint" />
            <mxPoint x="530" y="430" as="targetPoint" />
          </mxGeometry>
        </mxCell>
        <mxCell id="6qH3w6OaFPkoMokO1ttc-6" style="edgeStyle=orthogonalEdgeStyle;rounded=0;orthogonalLoop=1;jettySize=auto;html=1;exitX=0.75;exitY=1;exitDx=0;exitDy=0;entryX=0;entryY=0.5;entryDx=0;entryDy=0;dashed=1;" edge="1" parent="1" source="EFGr_PulNLdhgQqr8qeP-26" target="6qH3w6OaFPkoMokO1ttc-3">
          <mxGeometry relative="1" as="geometry" />
        </mxCell>
        <mxCell id="6qH3w6OaFPkoMokO1ttc-7" value="" style="group" vertex="1" connectable="0" parent="1">
          <mxGeometry x="230" y="690" width="100" height="60" as="geometry" />
        </mxCell>
        <mxCell id="EFGr_PulNLdhgQqr8qeP-83" value="" style="endArrow=classic;html=1;rounded=0;dashed=1;dashPattern=1 2;" parent="6qH3w6OaFPkoMokO1ttc-7" target="EFGr_PulNLdhgQqr8qeP-84" edge="1">
          <mxGeometry width="50" height="50" relative="1" as="geometry">
            <mxPoint y="15" as="sourcePoint" />
            <mxPoint x="70" y="15" as="targetPoint" />
          </mxGeometry>
        </mxCell>
        <mxCell id="EFGr_PulNLdhgQqr8qeP-84" value="Decrypt" style="text;html=1;align=center;verticalAlign=middle;whiteSpace=wrap;rounded=0;" parent="6qH3w6OaFPkoMokO1ttc-7" vertex="1">
          <mxGeometry x="40" width="60" height="30" as="geometry" />
        </mxCell>
        <mxCell id="EFGr_PulNLdhgQqr8qeP-90" value="" style="endArrow=classic;html=1;rounded=0;dashed=1;" parent="6qH3w6OaFPkoMokO1ttc-7" target="EFGr_PulNLdhgQqr8qeP-91" edge="1">
          <mxGeometry width="50" height="50" relative="1" as="geometry">
            <mxPoint y="45" as="sourcePoint" />
            <mxPoint x="70" y="45" as="targetPoint" />
          </mxGeometry>
        </mxCell>
        <mxCell id="EFGr_PulNLdhgQqr8qeP-91" value="Execute" style="text;html=1;align=center;verticalAlign=middle;whiteSpace=wrap;rounded=0;" parent="6qH3w6OaFPkoMokO1ttc-7" vertex="1">
          <mxGeometry x="40" y="30" width="60" height="30" as="geometry" />
        </mxCell>
      </root>
    </mxGraphModel>
  </diagram>
</mxfile>
